<svg width="410" height="130" viewBox="0 0 410 130" fill="none" xmlns="http://www.w3.org/2000/svg">
<path d="M40.9105 129.269C38.745 128.348 39.3681 127.969 44.253 127.237C53.175 125.899 63.3428 120.679 71.0668 113.472C78.2346 106.783 87.2093 94.6393 86.196 92.9997C85.8724 92.4761 82.1981 91.6217 78.031 91.1011C65.6291 89.5516 38.0958 81.4429 26.0182 75.7832C-7.85508 59.9096 -8.66164 43.4235 23.6464 27.3025C95.2397 -8.42089 306.621 -9.27707 382.773 25.8479C396.716 32.279 402.488 36.5489 406.506 43.4044C409.592 48.6709 409.785 49.77 408.418 54.3315C403.639 70.2816 371.767 84.5692 322.211 92.976C279.345 100.248 221.191 103.634 175.572 101.514L147.572 100.213L140.968 105.428C127.646 115.946 110.325 122.663 85.4477 126.958C71.275 129.404 44.4978 130.794 40.9105 129.269Z" fill="white"/>
<path d="M59.8143 54.538L53.0313 34.036H58.9983L62.8233 47.143H62.9253L66.7503 34.036H72.2073L65.4243 54.538V69.736H59.8143V54.538ZM81.9471 70.246C79.1931 70.246 77.0851 69.464 75.6231 67.9C74.1611 66.336 73.4301 64.126 73.4301 61.27V42.502C73.4301 39.646 74.1611 37.436 75.6231 35.872C77.0851 34.308 79.1931 33.526 81.9471 33.526C84.7011 33.526 86.8091 34.308 88.2711 35.872C89.7331 37.436 90.4641 39.646 90.4641 42.502V61.27C90.4641 64.126 89.7331 66.336 88.2711 67.9C86.8091 69.464 84.7011 70.246 81.9471 70.246ZM81.9471 65.146C83.8851 65.146 84.8541 63.973 84.8541 61.627V42.145C84.8541 39.799 83.8851 38.626 81.9471 38.626C80.0091 38.626 79.0401 39.799 79.0401 42.145V61.627C79.0401 63.973 80.0091 65.146 81.9471 65.146ZM102.418 70.246C99.698 70.246 97.624 69.481 96.196 67.951C94.768 66.387 94.054 64.16 94.054 61.27V34.036H99.664V61.678C99.664 62.902 99.902 63.786 100.378 64.33C100.888 64.874 101.602 65.146 102.52 65.146C103.438 65.146 104.135 64.874 104.611 64.33C105.121 63.786 105.376 62.902 105.376 61.678V34.036H110.782V61.27C110.782 64.16 110.068 66.387 108.64 67.951C107.212 69.481 105.138 70.246 102.418 70.246ZM114.778 34.036H123.091C125.981 34.036 128.089 34.716 129.415 36.076C130.741 37.402 131.404 39.459 131.404 42.247V44.44C131.404 48.146 130.18 50.492 127.732 51.478V51.58C129.092 51.988 130.044 52.821 130.588 54.079C131.166 55.337 131.455 57.02 131.455 59.128V65.401C131.455 66.421 131.489 67.254 131.557 67.9C131.625 68.512 131.795 69.124 132.067 69.736H126.355C126.151 69.158 126.015 68.614 125.947 68.104C125.879 67.594 125.845 66.676 125.845 65.35V58.822C125.845 57.19 125.573 56.051 125.029 55.405C124.519 54.759 123.618 54.436 122.326 54.436H120.388V69.736H114.778V34.036ZM122.428 49.336C123.55 49.336 124.383 49.047 124.927 48.469C125.505 47.891 125.794 46.922 125.794 45.562V42.808C125.794 41.516 125.556 40.581 125.08 40.003C124.638 39.425 123.924 39.136 122.938 39.136H120.388V49.336H122.428ZM142.036 34.036H147.697L151.369 61.729H151.471L155.143 34.036H160.294L154.888 69.736H147.442L142.036 34.036ZM170.998 70.246C168.244 70.246 166.136 69.464 164.674 67.9C163.212 66.336 162.481 64.126 162.481 61.27V42.502C162.481 39.646 163.212 37.436 164.674 35.872C166.136 34.308 168.244 33.526 170.998 33.526C173.752 33.526 175.86 34.308 177.322 35.872C178.784 37.436 179.515 39.646 179.515 42.502V61.27C179.515 64.126 178.784 66.336 177.322 67.9C175.86 69.464 173.752 70.246 170.998 70.246ZM170.998 65.146C172.936 65.146 173.905 63.973 173.905 61.627V42.145C173.905 39.799 172.936 38.626 170.998 38.626C169.06 38.626 168.091 39.799 168.091 42.145V61.627C168.091 63.973 169.06 65.146 170.998 65.146ZM187.496 39.136H181.631V34.036H198.971V39.136H193.106V69.736H187.496V39.136ZM201.687 34.036H216.987V39.136H207.297V48.571H214.998V53.671H207.297V64.636H216.987V69.736H201.687V34.036ZM236.287 70.246C233.601 70.246 231.544 69.481 230.116 67.951C228.722 66.421 228.025 64.262 228.025 61.474V42.298C228.025 39.51 228.722 37.351 230.116 35.821C231.544 34.291 233.601 33.526 236.287 33.526C238.973 33.526 241.013 34.291 242.407 35.821C243.835 37.351 244.549 39.51 244.549 42.298V46.072H239.245V41.941C239.245 39.731 238.31 38.626 236.44 38.626C234.57 38.626 233.635 39.731 233.635 41.941V61.882C233.635 64.058 234.57 65.146 236.44 65.146C238.31 65.146 239.245 64.058 239.245 61.882V56.425H244.549V61.474C244.549 64.262 243.835 66.421 242.407 67.951C241.013 69.481 238.973 70.246 236.287 70.246ZM256.114 70.246C253.36 70.246 251.252 69.464 249.79 67.9C248.328 66.336 247.597 64.126 247.597 61.27V42.502C247.597 39.646 248.328 37.436 249.79 35.872C251.252 34.308 253.36 33.526 256.114 33.526C258.868 33.526 260.976 34.308 262.438 35.872C263.9 37.436 264.631 39.646 264.631 42.502V61.27C264.631 64.126 263.9 66.336 262.438 67.9C260.976 69.464 258.868 70.246 256.114 70.246ZM256.114 65.146C258.052 65.146 259.021 63.973 259.021 61.627V42.145C259.021 39.799 258.052 38.626 256.114 38.626C254.176 38.626 253.207 39.799 253.207 42.145V61.627C253.207 63.973 254.176 65.146 256.114 65.146ZM276.585 70.246C273.865 70.246 271.791 69.481 270.363 67.951C268.935 66.387 268.221 64.16 268.221 61.27V34.036H273.831V61.678C273.831 62.902 274.069 63.786 274.545 64.33C275.055 64.874 275.769 65.146 276.687 65.146C277.605 65.146 278.302 64.874 278.778 64.33C279.288 63.786 279.543 62.902 279.543 61.678V34.036H284.949V61.27C284.949 64.16 284.235 66.387 282.807 67.951C281.379 69.481 279.305 70.246 276.585 70.246ZM288.945 34.036H295.983L301.44 55.405H301.542V34.036H306.54V69.736H300.777L294.045 43.675H293.943V69.736H288.945V34.036ZM315.095 39.136H309.23V34.036H326.57V39.136H320.705V69.736H315.095V39.136ZM336.579 70.246C333.859 70.246 331.802 69.481 330.408 67.951C329.014 66.387 328.317 64.16 328.317 61.27V59.23H333.621V61.678C333.621 63.99 334.59 65.146 336.528 65.146C337.48 65.146 338.194 64.874 338.67 64.33C339.18 63.752 339.435 62.834 339.435 61.576C339.435 60.08 339.095 58.771 338.415 57.649C337.735 56.493 336.477 55.116 334.641 53.518C332.329 51.478 330.714 49.642 329.796 48.01C328.878 46.344 328.419 44.474 328.419 42.4C328.419 39.578 329.133 37.402 330.561 35.872C331.989 34.308 334.063 33.526 336.783 33.526C339.469 33.526 341.492 34.308 342.852 35.872C344.246 37.402 344.943 39.612 344.943 42.502V43.981H339.639V42.145C339.639 40.921 339.401 40.037 338.925 39.493C338.449 38.915 337.752 38.626 336.834 38.626C334.964 38.626 334.029 39.765 334.029 42.043C334.029 43.335 334.369 44.542 335.049 45.664C335.763 46.786 337.038 48.146 338.874 49.744C341.22 51.784 342.835 53.637 343.719 55.303C344.603 56.969 345.045 58.924 345.045 61.168C345.045 64.092 344.314 66.336 342.852 67.9C341.424 69.464 339.333 70.246 336.579 70.246ZM348.721 48.928V34.036H354.331V48.928L353.617 60.301H349.435L348.721 48.928ZM348.823 64.33H354.229V69.736H348.823V64.33Z" fill="black"/>
</svg>
